<?xml version="1.0" standalone="no"?><!DOCTYPE svg PUBLIC "-//W3C//DTD SVG 1.1//EN" "http://www.w3.org/Graphics/SVG/1.1/DTD/svg11.dtd"><svg t="1516937510613" class="icon" style="" viewBox="0 0 1024 1024" version="1.1" xmlns="http://www.w3.org/2000/svg" p-id="2492" xmlns:xlink="http://www.w3.org/1999/xlink" width="38" height="38"><defs><style type="text/css">@font-face { font-family: uc-nexus-iconfont; src: url("chrome-extension://pogijhnlcfmcppgimcaccdkmbedjkmhi/res/font_9qmmi8b8jsxxbt9.woff") format("woff"), url("chrome-extension://pogijhnlcfmcppgimcaccdkmbedjkmhi/res/font_9qmmi8b8jsxxbt9.ttf") format("truetype"); }
</style></defs><path d="M550.585295 195.906855l71.544453 0 0 150.761656-71.544453 0 0-150.761656Z" p-id="2493" fill="#ffffff"></path><path d="M801.835619 157.747767l-60.838623 0 0 179.51656c0 41.295522-33.481556 74.777077-74.783217 74.777077l-273.483698 0c-41.267892 0-74.719772-33.481556-74.719772-74.777077l0-179.51656-90.314958 0c-36.08894 0-65.61644 29.5275-65.61644 65.61644l0 574.144362c0 36.08894 29.5275 65.61644 65.61644 65.61644l574.139246 0c36.08894 0 65.61644-29.5275 65.61644-65.61644l0-574.144362C867.45206 187.275267 837.924559 157.747767 801.835619 157.747767zM777.391904 738.457662c0 36.08894-29.5275 65.61644-65.61644 65.61644l-364.607068 0c-36.08894 0-65.61644-29.5275-65.61644-65.61644l0-167.597089c0-36.08894 29.5275-65.61644 65.61644-65.61644l364.607068 0c36.08894 0 65.61644 29.5275 65.61644 65.61644L777.391904 738.457662z" p-id="2494" fill="#ffffff"></path><path d="M369.339348 555.193755l309.210387 0 0 32.80822-309.210387 0 0-32.80822Z" p-id="2495" fill="#ffffff"></path><path d="M369.339348 638.240169l309.210387 0 0 32.80822-309.210387 0 0-32.80822Z" p-id="2496" fill="#ffffff"></path><path d="M369.339348 721.286584l309.210387 0 0 32.809243-309.210387 0 0-32.809243Z" p-id="2497" fill="#ffffff"></path></svg>