<?xml version="1.0" standalone="no"?><!DOCTYPE svg PUBLIC "-//W3C//DTD SVG 1.1//EN" "http://www.w3.org/Graphics/SVG/1.1/DTD/svg11.dtd"><svg t="1516937469181" class="icon" style="" viewBox="0 0 1024 1024" version="1.1" xmlns="http://www.w3.org/2000/svg" p-id="2282" xmlns:xlink="http://www.w3.org/1999/xlink" width="38" height="38"><defs><style type="text/css">@font-face { font-family: uc-nexus-iconfont; src: url("chrome-extension://pogijhnlcfmcppgimcaccdkmbedjkmhi/res/font_9qmmi8b8jsxxbt9.woff") format("woff"), url("chrome-extension://pogijhnlcfmcppgimcaccdkmbedjkmhi/res/font_9qmmi8b8jsxxbt9.ttf") format("truetype"); }
</style></defs><path d="M555.7 63.9h-153v43.7h153V63.9z m120.2 393.3c-139.9 0-251.3 111.5-251.3 251.3S536 959.9 675.9 959.9s251.3-111.5 251.3-251.3-111.4-251.4-251.3-251.4zM818 741.3H643.1V566.5h43.7v131.1H818v43.7z m-434.9 0H271.6v-43.7h109.3c2.2-48.1 15.3-91.8 37.2-131.1H271.7v-43.7h174.8c54.6-67.7 137.7-109.3 229.5-109.3 69.9 0 135.5 24 185.8 65.6v-306c0-61.2-48.1-109.3-109.3-109.3H649.7l-28.4 87.4H337.2L300 63.9h-94c-61.2 0-109.3 48.1-109.3 109.3v677.5C96.7 911.9 144.8 960 206 960h316.9C446.4 914 394 833.1 383.1 741.3zM271.6 348h415.2v43.7H271.6V348z" p-id="2283" fill="#ffffff"></path></svg>