<?xml version="1.0" standalone="no"?><!DOCTYPE svg PUBLIC "-//W3C//DTD SVG 1.1//EN" "http://www.w3.org/Graphics/SVG/1.1/DTD/svg11.dtd"><svg t="1516937411822" class="icon" style="" viewBox="0 0 1024 1024" version="1.1" xmlns="http://www.w3.org/2000/svg" p-id="2082" xmlns:xlink="http://www.w3.org/1999/xlink" width="38" height="38"><defs><style type="text/css">@font-face { font-family: uc-nexus-iconfont; src: url("chrome-extension://pogijhnlcfmcppgimcaccdkmbedjkmhi/res/font_9qmmi8b8jsxxbt9.woff") format("woff"), url("chrome-extension://pogijhnlcfmcppgimcaccdkmbedjkmhi/res/font_9qmmi8b8jsxxbt9.ttf") format("truetype"); }
</style></defs><path d="M926.255327 766.93218L587.300498 179.870624c-41.436738-71.76651-109.213377-71.76651-150.670581 0L97.654622 766.937297c-41.435715 71.859631-7.525394 130.466424 75.308173 130.466423h678.023244c82.814124 0 116.706025-58.627259 75.269288-130.47154z m-460.845947-420.475494c12.190647-13.183254 27.672246-19.755949 46.566572-19.755949 18.890232 0 34.359552 6.514367 46.549176 19.493983 12.112875 12.991895 18.180058 29.265534 18.180058 48.830125 0 16.815991-25.296129 140.540873-33.721009 230.56419h-60.908209c-7.413853-90.023316-34.846646-213.748199-34.846645-230.56419 0.001023-19.268856 6.066159-35.483142 18.180057-48.568159z m92.256171 428.025447c-12.794397 12.467963-28.053939 18.703991-45.688575 18.703991-17.656125 0-32.899294-6.237051-45.705972-18.703991-12.788258-12.453636-19.136849-27.52796-19.136849-45.23525 0-17.60496 6.349615-32.864502 19.136849-45.63434 12.806677-12.764722 28.049846-19.170618 45.705972-19.170619 17.634636 0 32.899294 6.40692 45.688575 19.170619 12.769838 12.769838 19.151176 28.02938 19.151175 45.63434-0.019443 17.70729-6.381337 32.781614-19.151175 45.230134v0.005116z m0 0" p-id="2083" fill="#ffffff"></path></svg>