<?xml version="1.0" standalone="no"?><!DOCTYPE svg PUBLIC "-//W3C//DTD SVG 1.1//EN" "http://www.w3.org/Graphics/SVG/1.1/DTD/svg11.dtd"><svg t="1516937548441" class="icon" style="" viewBox="0 0 1024 1024" version="1.1" xmlns="http://www.w3.org/2000/svg" p-id="2701" xmlns:xlink="http://www.w3.org/1999/xlink" width="38" height="38"><defs><style type="text/css">@font-face { font-family: uc-nexus-iconfont; src: url("chrome-extension://pogijhnlcfmcppgimcaccdkmbedjkmhi/res/font_9qmmi8b8jsxxbt9.woff") format("woff"), url("chrome-extension://pogijhnlcfmcppgimcaccdkmbedjkmhi/res/font_9qmmi8b8jsxxbt9.ttf") format("truetype"); }
</style></defs><path d="M694.325024 905.999492c-116.470665 0-211.135698-94.692662-211.135698-211.193003 0-116.41029 94.665033-211.134675 211.135698-211.134675 116.498294 0 211.250308 94.724385 211.250308 211.134675C905.575332 811.30683 810.822294 905.999492 694.325024 905.999492zM694.328094 520.185426c-96.234785 0-174.626179 78.30953-174.626179 174.625156 0 96.290043 78.391395 174.708044 174.626179 174.708044 96.341209 0 174.708044-78.391395 174.708044-174.708044C869.007485 598.467327 790.669302 520.185426 694.328094 520.185426zM929.504324 959.612551c-4.485151 0-9.008164-1.703805-12.412704-5.106298l-100.662631-100.70561c-6.891967-6.724145-6.891967-17.848507 0-24.699542 6.80601-6.807033 17.848507-6.807033 24.740474 0l100.623745 100.623745c6.889921 6.845918 6.889921 17.971303 0 24.781406C938.385599 957.908746 933.863608 959.612551 929.504324 959.612551zM452.337667 699.159634c0-128.58354 96.163153-243.205091 214.478839-243.205091 43.074028 0 83.2214-3.919263 116.866684 19.959587L783.683191 275.782044 546.485931 275.782044c-64.824401 0-117.402897-57.096393-117.402897-127.620609L429.083034 62.399165 191.88475 62.399165c-64.824401 0-117.40392 57.154721-117.40392 127.620609l0 583.836095c0 70.466911 52.579519 127.623679 117.40392 127.623679l368.671641 0C495.975537 861.195054 452.337667 785.65152 452.337667 699.159634zM572.060399 256.106935l213.5814 0L456.319351 62.399165l0 77.879742C456.319351 204.235544 508.134461 256.106935 572.060399 256.106935z" p-id="2702" fill="#ffffff"></path></svg>